<?xml version="1.0" encoding="iso-8859-1"?>
<!-- Generator: Adobe Illustrator 19.0.0, SVG Export Plug-In . SVG Version: 6.00 Build 0)  -->
<svg version="1.1" id="Layer_1" xmlns="http://www.w3.org/2000/svg" xmlns:xlink="http://www.w3.org/1999/xlink" x="0px" y="0px"
	 viewBox="0 0 511.861 511.861" style="enable-background:new 0 0 511.861 511.861;" xml:space="preserve">
<g>
	<g>
		<g>
			<path d="M383.924,366.795c-4.71,0-8.533,3.823-8.533,8.533v72.883c-9.062-8.149-21.009-13.15-34.133-13.15
				c-22.963,0-42.445,15.206-48.913,36.079c-5.188,2.074-18.475,6.588-36.42,6.588c-17.877,0-31.223-4.523-36.412-6.596
				c-6.477-20.872-25.95-36.07-48.922-36.07c-13.116,0-25.062,5.001-34.133,13.15v-72.883c0-4.71-3.814-8.533-8.533-8.533
				c-4.71,0-8.533,3.823-8.533,8.533v110.933v8.533c0,9.412,7.663,17.067,17.067,17.067h68.267c9.412,0,17.067-7.654,17.067-17.067
				v-4.872c8.166,2.415,19.9,4.872,34.133,4.872c14.199,0,25.95-2.466,34.133-4.89v4.89c0,9.412,7.663,17.067,17.067,17.067h68.267
				c9.412,0,17.067-7.654,17.067-17.067v-8.533V375.328C392.458,370.618,388.643,366.795,383.924,366.795z M179.125,494.795v-8.533
				c0-4.71-3.814-8.533-8.533-8.533c-4.71,0-8.533,3.823-8.533,8.533v8.533h-25.6v-8.533c0-18.816,15.309-34.133,34.133-34.133
				c18.833,0,34.133,15.317,34.133,34.133l0.009,8.533H179.125z M349.791,494.795v-8.533c0-4.71-3.814-8.533-8.533-8.533
				c-4.71,0-8.533,3.823-8.533,8.533v8.533h-25.6v-8.533c0-18.816,15.309-34.133,34.133-34.133
				c18.833,0,34.133,15.317,34.133,34.133l0.009,8.533H349.791z"/>
			<path d="M475.291,326.628c-0.316-0.316-31.633-31.983-31.633-62.234v-59.733c0-40.858-12.663-79.241-36.693-111.394
				c22.886-36.762,25.933-65.161,8.747-82.347c-26.385-26.385-72.977,1.297-95.36,17.434c-20.488-7.484-42.283-11.426-64.427-11.426
				c-22.093,0-43.853,3.934-64.324,11.392c-22.417-16.102-69.026-43.682-95.309-17.425c-17.246,17.254-14.217,45.67,8.721,82.398
				c-24.107,32.256-36.821,70.622-36.821,111.369v59.733c0,30.131-31.317,61.918-31.642,62.242c-2.082,2.091-2.935,5.12-2.253,7.996
				s2.799,5.188,5.598,6.127c71.322,23.765,134.912,15.095,177.28-3.985c5.18,8.26,16.862,21.487,38.75,21.487
				c21.879,0,33.562-13.056,38.741-21.197c11.366,5.12,23.876,9.395,37.231,12.45c14.046,3.209,31.957,5.828,52.966,5.828
				c25.037,0,54.494-3.721,87.1-14.583c2.807-0.939,4.924-3.26,5.606-6.135C478.243,331.748,477.39,328.719,475.291,326.628z
				 M255.924,341.195c-12.749,0-19.917-7.151-23.415-12.186c9.37-5.47,17.254-11.426,23.39-17.527
				c6.366,6.434,14.319,12.424,23.475,17.792C275.875,334.189,268.707,341.195,255.924,341.195z M238.926,222.752
				c3.209-1.024,11.392-1.024,16.998-1.024c5.623,0,13.807,0,17.016,1.024c-0.836,7.526-9.958,24.576-17.016,24.576
				C248.885,247.328,239.771,230.312,238.926,222.752z M264.458,295.396v-32.862c15.667-6.707,25.6-30.302,25.6-40.806
				c0-17.067-18.918-17.067-34.133-17.067c-15.206,0-34.133,0-34.133,17.067c0,10.505,9.941,34.099,25.6,40.806v32.862
				c-24.687,29.926-98.859,58.701-189.679,32.998c10.863-13.466,27.546-38.34,27.546-64v-59.733
				c0-38.904,12.749-75.418,36.855-105.591c2.304-2.893,2.492-6.938,0.452-10.027c-9.6-14.532-30.217-50.065-14.208-66.082
				c12.868-12.894,40.038-2.654,64.708,13.363c-13.807,6.793-26.872,15.198-38.741,25.301c-3.576,3.055-4.011,8.439-0.964,12.032
				c3.072,3.584,8.439,4.011,12.032,0.964c30.797-26.197,70.042-40.627,110.532-40.627c40.508,0,79.77,14.438,110.558,40.644
				c1.604,1.374,3.567,2.039,5.53,2.039c2.406,0,4.804-1.024,6.502-2.995c3.046-3.593,2.611-8.977-0.973-12.032
				c-11.853-10.095-24.9-18.5-38.699-25.293c24.653-16.068,51.831-26.325,64.802-13.372c15.923,15.932-4.651,51.499-14.234,66.048
				c-2.031,3.089-1.852,7.134,0.461,10.027c24.021,30.054,36.719,66.569,36.719,105.6v59.733c0,25.66,16.691,50.534,27.554,64
				C363.282,354.097,289.145,325.323,264.458,295.396z"/>
			<path d="M345.524,179.061c-7.057,0-12.8,5.743-12.8,12.8s5.743,12.8,12.8,12.8c7.066,0,12.8-5.743,12.8-12.8
				S352.59,179.061,345.524,179.061z"/>
			<path d="M166.324,179.061c-7.057,0-12.8,5.743-12.8,12.8s5.743,12.8,12.8,12.8c7.066,0,12.8-5.743,12.8-12.8
				S173.39,179.061,166.324,179.061z"/>
			<path d="M197.642,366.846c-4.77-0.538-8.9,2.867-9.412,7.552c-0.341,3.106-0.572,6.255-0.572,9.463
				c0,42.351,30.626,76.8,68.267,76.8c37.649,0,68.267-34.449,68.267-76.8c0-3.208-0.222-6.357-0.563-9.463
				c-0.521-4.685-4.71-8.081-9.412-7.552c-4.685,0.521-8.073,4.736-7.552,9.421c0.273,2.492,0.461,5.018,0.461,7.595
				c0,32.939-22.963,59.733-51.2,59.733c-28.228,0-51.2-26.795-51.2-59.733c0-2.577,0.196-5.103,0.469-7.595
				C205.714,371.582,202.327,367.366,197.642,366.846z"/>
			<path d="M397.219,225.056c1.86-9.395,3.772-19.106,3.772-28.928c0-38.912-29.346-68.267-68.267-68.267
				c-39.842,0-65.22,23.185-76.8,36.941c-11.571-13.756-36.949-36.941-76.8-36.941c-38.912,0-68.267,29.355-68.267,68.267
				c0,9.822,1.92,19.533,3.78,28.928c5.12,25.958,9.967,50.483-18.867,85.077c-3.021,3.618-2.526,9.003,1.092,12.015
				c1.596,1.331,3.533,1.98,5.453,1.98c2.458,0,4.881-1.041,6.571-3.072c34.031-40.841,27.631-73.259,22.494-99.311
				c-1.775-8.977-3.456-17.468-3.456-25.617c0-29.184,22.016-51.2,51.2-51.2c45.525,0,68.531,36.941,69.495,38.545
				c0.068,0.111,0.179,0.171,0.256,0.273c0.29,0.444,0.7,0.794,1.075,1.178c0.427,0.427,0.828,0.879,1.323,1.203
				c0.094,0.068,0.145,0.171,0.247,0.23c0.324,0.196,0.691,0.222,1.024,0.367c0.589,0.265,1.169,0.521,1.801,0.64
				c0.495,0.094,0.964,0.077,1.459,0.077c0.597,0.017,1.169,0.026,1.775-0.085c0.538-0.111,1.033-0.341,1.545-0.555
				c0.401-0.162,0.819-0.196,1.195-0.418c0.12-0.068,0.179-0.188,0.282-0.265c0.469-0.299,0.828-0.725,1.237-1.126
				c0.41-0.401,0.828-0.768,1.152-1.246c0.06-0.102,0.179-0.162,0.247-0.273c0.947-1.57,23.953-38.545,69.487-38.545
				c29.193,0,51.2,22.016,51.2,51.2c0,8.149-1.673,16.64-3.447,25.617c-5.137,26.052-11.537,58.47,22.494,99.311
				c1.69,2.031,4.113,3.072,6.562,3.072c1.929,0,3.866-0.648,5.461-1.98c3.618-3.012,4.113-8.397,1.092-12.015
				C387.253,275.539,392.091,251.014,397.219,225.056z"/>
		</g>
	</g>
</g>
<g>
</g>
<g>
</g>
<g>
</g>
<g>
</g>
<g>
</g>
<g>
</g>
<g>
</g>
<g>
</g>
<g>
</g>
<g>
</g>
<g>
</g>
<g>
</g>
<g>
</g>
<g>
</g>
<g>
</g>
</svg>
